<svg xmlns="http://www.w3.org/2000/svg" viewBox="0 0 8.11 10.98"><defs><style>.cls-1{fill:#fff;}</style></defs><g id="Layer_2" data-name="Layer 2"><g id="Слой_1" data-name="Слой 1"><path class="cls-1" d="M4.06,0A4.06,4.06,0,0,0,0,4.06c0,2.16,3.7,6.64,3.86,6.82a.26.26,0,0,0,.2.1.28.28,0,0,0,.2-.1c.16-.18,3.85-4.66,3.85-6.82A4.06,4.06,0,0,0,4.06,0Zm0,10.3C3.73,9.89,3.05,9,2.37,8,1.16,6.23.52,4.86.52,4.06a3.54,3.54,0,1,1,7.07,0c0,.8-.64,2.17-1.85,4C5.07,9,4.38,9.89,4.06,10.3Z"/><path class="cls-1" d="M5.39,7.46A.27.27,0,0,0,5,7.53c-.35.52-.74,1.07-1.17,1.62a.26.26,0,0,0,0,.37.26.26,0,0,0,.36,0c.44-.56.84-1.12,1.2-1.65A.26.26,0,0,0,5.39,7.46Z"/><path class="cls-1" d="M4.06,2A2.15,2.15,0,1,0,6.2,4.15,2.15,2.15,0,0,0,4.06,2Zm0,3.77A1.62,1.62,0,1,1,5.68,4.15,1.62,1.62,0,0,1,4.06,5.77Z"/></g></g></svg>