<svg xmlns="http://www.w3.org/2000/svg" viewBox="0 0 11.35 8.2"><defs><style>.cls-1{fill:#fff;}</style></defs><g id="Layer_2" data-name="Layer 2"><g id="Слой_1" data-name="Слой 1"><path class="cls-1" d="M1.31,1.89,3.86,4.1,1.31,6.31a.38.38,0,0,0,0,.52.37.37,0,0,0,.52,0L4.42,4.59l1,.88a.38.38,0,0,0,.24.09.36.36,0,0,0,.24-.09l1-.88L9.55,6.87A.37.37,0,0,0,10,6.31L7.49,4.1,10,1.89a.37.37,0,0,0,0-.52.37.37,0,0,0-.52,0L5.67,4.7,1.79,1.33a.37.37,0,0,0-.48.56Z"/><path class="cls-1" d="M11,0H.37A.36.36,0,0,0,0,.37V7.83a.36.36,0,0,0,.37.37H11a.37.37,0,0,0,.37-.37V.37A.37.37,0,0,0,11,0Zm-.37,7.47H.74V.74h9.87V7.47Z"/></g></g></svg>