<svg xmlns="http://www.w3.org/2000/svg" viewBox="0 0 805.83 637.46"><defs><style>.cls-1{fill:#99afbc;}.cls-15,.cls-2,.cls-7{fill:#fff;}.cls-2{stroke:#3c3c3b;}.cls-11,.cls-12,.cls-13,.cls-14,.cls-15,.cls-16,.cls-17,.cls-18,.cls-19,.cls-2,.cls-21,.cls-22,.cls-23,.cls-4,.cls-6,.cls-7,.cls-8{stroke-miterlimit:10;}.cls-3{fill:#f7c9d2;}.cls-13,.cls-4{fill:#575756;}.cls-4{stroke:#676768;}.cls-5{fill:#d1a6bd;}.cls-14,.cls-23,.cls-6{fill:none;}.cls-13,.cls-14,.cls-16,.cls-19,.cls-6,.cls-8{stroke:#1d1d1b;}.cls-11,.cls-12,.cls-7{stroke:#575756;}.cls-8{fill:#fffffb;}.cls-9{font-size:23.63px;font-family:MyriadPro-Regular, Myriad Pro;}.cls-19,.cls-9{fill:#1d1d1b;}.cls-10{fill:#676768;}.cls-11{fill:#9d9d9c;}.cls-12{fill:#878787;}.cls-13,.cls-14,.cls-23{stroke-width:2px;}.cls-15,.cls-21,.cls-22{stroke:#ad7e73;}.cls-16,.cls-17{fill:#8984b7;}.cls-17,.cls-18{stroke:#706f6f;}.cls-18{fill:#fde6a8;}.cls-20{fill:#efcbd9;}.cls-21{fill:#d1afa1;}.cls-22{fill:#f2c5b0;}.cls-23{stroke:#4d4a66;}</style></defs><g id="Layer_2" data-name="Layer 2"><g id="Слой_3" data-name="Слой 3"><path class="cls-1" d="M805.56,300.3c4.79,124.74-53.65,278.14-163.77,321-42.6,16.58-92.11,16.29-119.66,16.13-54.59-.33-85.46-10.87-155.23-27.58C204.64,571,212.65,590,159.58,565.94,135.62,555.09,7.68,497.19.26,402.53c-1.21-15.45-.78-52,62.3-130.72C188.1,115.16,349.29,56.88,373.56,48.3c110.65-39.13,200.75-71.07,288-27C794.05,88.22,804.46,271.66,805.56,300.3Z"/><rect class="cls-2" x="107.48" y="92.32" width="428.52" height="288" rx="23.74"/><rect class="cls-3" x="137.13" y="129.13" width="153.53" height="99.15"/><rect class="cls-3" x="137.13" y="240.51" width="153.53" height="85.28"/><rect class="cls-3" x="307.16" y="271.5" width="199.19" height="54.29"/><rect class="cls-3" x="307.16" y="231.66" width="199.19" height="25.17"/><rect class="cls-3" x="307.16" y="129.13" width="199.19" height="59.65"/><path class="cls-4" d="M122.56,92H521.18a15.19,15.19,0,0,1,15.19,15.19v12.68a0,0,0,0,1,0,0H107.17a0,0,0,0,1,0,0V107.34A15.39,15.39,0,0,1,122.56,92Z"/><path class="cls-4" d="M107.11,344.67H536.37a0,0,0,0,1,0,0v20.28A15.37,15.37,0,0,1,521,380.32H123a15.85,15.85,0,0,1-15.85-15.85v-19.8A0,0,0,0,1,107.11,344.67Z"/><path class="cls-4" d="M101.43,410.16l439.82.19q10.53,35.16,21,70.33L78.36,482.25q4.64-14.69,9.31-29.33Q94.5,431.53,101.43,410.16Z"/><rect class="cls-5" x="307.16" y="256.82" width="179.44" height="2.08"/><rect class="cls-5" x="137.13" y="228.28" width="153.53" height="2.08"/><rect class="cls-5" x="137.13" y="325.79" width="153.53" height="2.08"/><rect class="cls-5" x="307.16" y="325.79" width="199.19" height="2.08"/><rect class="cls-5" x="307.16" y="188.78" width="199.19" height="2.08"/><path class="cls-6" d="M164.87,200.28l19.29-36.66,20.57,29.2,23.91-23.45,15.15,16.77,23.11,12.27"/><rect class="cls-7" x="151.8" y="275.46" width="131.84" height="4.82"/><rect class="cls-7" x="151.8" y="287.11" width="81.14" height="4.82"/><rect class="cls-7" x="150.77" y="310.41" width="37.06" height="4.82"/><rect class="cls-7" x="376.9" y="244.63" width="112.23" height="4.82"/><rect class="cls-7" x="359.52" y="176.43" width="29.17" height="4.82"/><ellipse class="cls-7" cx="163.77" cy="202.02" rx="2.95" ry="2.87"/><ellipse class="cls-7" cx="183.79" cy="163.27" rx="2.95" ry="2.87"/><ellipse class="cls-7" cx="204.44" cy="193.08" rx="2.95" ry="2.87"/><ellipse class="cls-7" cx="228.07" cy="169.55" rx="2.95" ry="2.87"/><ellipse class="cls-7" cx="243.58" cy="186.61" rx="2.95" ry="2.87"/><ellipse class="cls-7" cx="267.95" cy="198.83" rx="2.95" ry="2.87"/><rect class="cls-7" x="167.74" y="87.19" width="86.8" height="53.36" rx="12.06"/><rect class="cls-8" x="275.35" y="102.8" width="186.28" height="22.14" rx="7.18"/><rect class="cls-8" x="275.35" y="135.42" width="186.28" height="22.14" rx="7.18"/><rect class="cls-8" x="276.66" y="72.86" width="186.28" height="22.14" rx="7.18"/><text class="cls-9" transform="translate(193.45 120.2) scale(1.03 1)">JS</text><path class="cls-10" d="M66.25,580a10.87,10.87,0,0,1-6.38-2.84c-2.22-2.12-2.78-4.65-3.3-7a20.67,20.67,0,0,1,0-8.65,12.81,12.81,0,0,0,4.84,8.9,12.49,12.49,0,0,0,7.6,2.43l507.44-.19a9.86,9.86,0,0,0,5.73-2,10,10,0,0,0,3.74-6.55,18,18,0,0,1-.61,8.08,12.63,12.63,0,0,1-2.36,4.63s-2.76,3.19-8.68,3.77C564.1,581.56,117.74,580.16,66.25,580Z"/><path class="cls-11" d="M111.05,380.71a2.91,2.91,0,0,1,1.46-.39c1.29,0,177.7.08,418,.21a3.13,3.13,0,0,1,1.18.17,1.83,1.83,0,0,1,.86.48,2,2,0,0,1,.23.32l52.82,179.08a10.7,10.7,0,0,1-.42,5.41,10.26,10.26,0,0,1-1.27,2.47h0a10.49,10.49,0,0,1-3.47,3,10.78,10.78,0,0,1-6.54,1.15l-503.94.1a13.13,13.13,0,0,1-9.39-3.29c-4.25-3.95-3.64-10.81-3.46-13.18,1.37-18.33,50.27-166.08,53-174.43A2.54,2.54,0,0,1,111.05,380.71Z"/><path class="cls-12" d="M215.29,494.89l213.79-.09q6.09,28.91,12.2,57.82l-236.53-.13Q210,523.69,215.29,494.89Z"/><path class="cls-13" d="M560.74,481.16,77.62,484.6l23.31-74.89H539.5Z"/><path class="cls-14" d="M152.63,466.88l-45.15.37q1.81-6.58,3.62-13.18l43.67.12Q153.7,460.54,152.63,466.88Z"/><path class="cls-14" d="M529.18,453.8l-375.27.39"/><path class="cls-14" d="M328.87,440.62l0,13.07"/><path class="cls-14" d="M347.22,440.1l.06,13.47"/><path class="cls-14" d="M364.77,440.16q.23,6.72.46,13.44"/><path class="cls-14" d="M383,439.79q.68,6.87,1.33,13.74"/><path class="cls-14" d="M401.19,439.91q.74,6.82,1.48,13.66"/><path class="cls-14" d="M418.77,439.73q1.25,6.94,2.5,13.9"/><path class="cls-14" d="M436.93,439.85q1.17,6.86,2.32,13.72"/><path class="cls-14" d="M455,440.25q1.41,6.67,2.81,13.35"/><path class="cls-14" d="M473.2,440l3.46,13.57"/><path class="cls-14" d="M491.28,440.06q1.71,6.74,3.43,13.47"/><path class="cls-14" d="M532,466.82H152.72"/><path class="cls-14" d="M173,454.42,170,466.72"/><path class="cls-14" d="M192.1,454.68q-1.71,6.22-3.43,12.45"/><path class="cls-14" d="M210.17,454.62q-1.28,6.12-2.56,12.26"/><path class="cls-14" d="M228.9,454.31q-1.32,6.26-2.63,12.51"/><path class="cls-14" d="M247.25,454.26q-1.17,6.44-2.32,12.87"/><path class="cls-14" d="M265.41,454.43l-1.73,12.51"/><path class="cls-14" d="M283.49,454.46q-.75,6.23-1.49,12.45"/><path class="cls-14" d="M301.93,454.55q-.27,6.15-.53,12.3"/><path class="cls-14" d="M319.94,454.68l-.09,12.23"/><path class="cls-14" d="M338.51,454.68l0,12.17"/><path class="cls-14" d="M356.64,454.19q.09,6.38.19,12.75"/><path class="cls-14" d="M374.87,454.68q.39,6.1.77,12.2"/><path class="cls-14" d="M393.37,454.55l1.52,12.33"/><path class="cls-14" d="M411.26,454.13q1.32,6.35,2.63,12.69"/><path class="cls-14" d="M430.11,454.13q.94,6.42,1.88,12.84"/><path class="cls-14" d="M447.87,454l3.21,12.95"/><path class="cls-14" d="M484.7,454.13l3.36,12.75"/><path class="cls-14" d="M506.69,467.34q2.25,6.92,4.48,13.83"/><path class="cls-14" d="M478.36,467.37q1.89,7,3.77,14"/><path class="cls-14" d="M459.46,467.34l3.3,13.83"/><path class="cls-14" d="M440.58,467q1.73,7.2,3.46,14.4"/><path class="cls-14" d="M422,467.34l2.85,14"/><path class="cls-14" d="M403,467.34l3,14"/><path class="cls-14" d="M384.76,467.34q1,7.21,1.94,14.41"/><path class="cls-14" d="M218,467.41q-1.35,7.08-2.69,14.18"/><path class="cls-14" d="M199.11,467.37l-3,14.46"/><path class="cls-14" d="M181,467.5q-1.92,7.31-3.83,14.61"/><path class="cls-14" d="M162.29,467.13q-1.93,7.23-3.86,14.46"/><path class="cls-14" d="M143.91,467.31l-4.2,14.12"/><path class="cls-14" d="M124.85,467.47q-1.87,7.21-3.74,14.43"/><path class="cls-14" d="M107.36,467.65Q105.68,475,104,482.27l432-1.59-10.71-40.52-409.44.32"/><path class="cls-14" d="M311.26,453.81l.18-13.22"/><path class="cls-14" d="M292.88,440.62l-.28,13.1"/><path class="cls-14" d="M275.3,440.56l-1,13.22"/><path class="cls-14" d="M257,440.53q-.66,6.59-1.33,13.16"/><path class="cls-14" d="M239.31,440.53q-1.23,6.72-2.44,13.44"/><path class="cls-14" d="M219.26,453.84l2.22-13.31"/><path class="cls-14" d="M200.32,453.69l3.12-13"/><path class="cls-14" d="M185.68,440.56l-3.59,13.25"/><path class="cls-14" d="M164,453.91l3.27-13.1"/><path class="cls-14" d="M139.18,440.84q-1.86,6.48-3.71,13"/><path class="cls-14" d="M120,424l401.29.74"/><path class="cls-14" d="M501.32,439.78q-2.16-7.45-4.33-14.91"/><path class="cls-14" d="M482.62,439.86q-1.8-7.46-3.59-14.91"/><path class="cls-14" d="M464.24,439.82q-1.39-7.44-2.8-14.87"/><path class="cls-14" d="M444,425l2.76,14.91"/><path class="cls-14" d="M426.06,424.82,428.49,440"/><path class="cls-14" d="M408.31,424.91q1.24,7.48,2.51,15"/><path class="cls-14" d="M391.13,424.74q.62,7.65,1.24,15.28"/><path class="cls-14" d="M372.63,424.7q.71,7.57,1.4,15.16"/><path class="cls-14" d="M355.66,424.66l.62,15.2"/><path class="cls-14" d="M338.07,424.74q0,7.67,0,15.32"/><path class="cls-14" d="M320.61,424.62V440"/><path class="cls-14" d="M302.36,424.58l.13,15.57"/><path class="cls-14" d="M284.77,424.62,284.15,440"/><path class="cls-14" d="M267.43,424.49q-.74,7.93-1.48,15.87"/><path class="cls-14" d="M250.05,424.41q-1.11,7.74-2.23,15.49"/><path class="cls-14" d="M232.38,424.54q-1.31,7.71-2.6,15.44"/><path class="cls-14" d="M214.5,424.41q-1.4,7.79-2.8,15.57"/><path class="cls-14" d="M197.16,424.33l-3.63,15.78"/><path class="cls-14" d="M179.16,424.33l-3.75,15.82"/><path class="cls-14" d="M161.77,424.37l-4.2,15.9"/><path class="cls-14" d="M143.77,424.33l-4.32,15.73"/><path class="cls-14" d="M139.24,410.41,135,423.67"/><path class="cls-14" d="M155.84,410.65q-1.72,6.56-3.46,13.1"/><path class="cls-14" d="M173.68,410.45q-2,6.62-3.91,13.22"/><path class="cls-14" d="M190.32,410.45q-1.45,6.74-2.92,13.47"/><path class="cls-14" d="M207.91,410.74,205,423.92"/><path class="cls-14" d="M225.74,410.61q-1.69,6.66-3.41,13.31"/><path class="cls-14" d="M240.24,423.92l2.52-13.31"/><path class="cls-14" d="M258.29,423.84q.75-6.66,1.52-13.31"/><path class="cls-14" d="M275.46,423.92l2-13.76"/><path class="cls-14" d="M293.22,424q.57-7,1.15-14.09"/><path class="cls-14" d="M311.51,424l.2-14.05"/><path class="cls-14" d="M328.89,424.16,329,410"/><path class="cls-14" d="M346.52,424q0-7.08.08-14.17"/><path class="cls-14" d="M364,424.12q-.75-7.2-1.52-14.41"/><path class="cls-14" d="M382.11,424.12q-.87-7.06-1.73-14.13"/><path class="cls-14" d="M399.9,424.12q-1-7-2-14.08"/><path class="cls-14" d="M417.08,424.29l-2.22-14.09"/><path class="cls-14" d="M435.78,424.29q-1.89-7-3.79-13.92"/><path class="cls-14" d="M453.78,424.41l-4.53-14.09"/><path class="cls-14" d="M471,424.21l-4.74-13.93"/><path class="cls-14" d="M488.71,424.29l-4.53-13.8"/><path class="cls-14" d="M506,424.33l-4.32-13.8"/><path class="cls-14" d="M525.29,440.16q-3.56-14.93-7.13-29.84l-395.32.18q-5.88,21.81-11.75,43.63"/><path class="cls-15" d="M637.94,403.46l-7.57-11.72a287.28,287.28,0,0,0-64.19,40.74l6.9,13.64a287,287,0,0,1,64.86-42.66Z"/><path class="cls-16" d="M739.66,538.7,640.91,402.47a253.34,253.34,0,0,0-74.76,49q46.36,81.11,92.75,162.19a201.92,201.92,0,0,0,80.76-75Z"/><path class="cls-16" d="M521,229.85,322,221l1.11-24.91,175.27,7.79a36,36,0,0,0,23.16,13.77Z"/><rect class="cls-17" x="151.8" y="263.81" width="131.84" height="4.82"/><rect class="cls-17" x="151.8" y="298.76" width="58.98" height="4.82"/><rect class="cls-17" x="216.69" y="298.76" width="33.8" height="4.82"/><rect class="cls-17" x="322.22" y="244.63" width="49.1" height="4.82"/><rect class="cls-17" x="322.22" y="176.3" width="32.04" height="4.82"/><rect class="cls-17" x="393.48" y="176.43" width="94.85" height="4.82"/><rect class="cls-16" x="345.81" y="285.72" width="28.3" height="27.57"/><rect class="cls-16" x="384.51" y="285.72" width="28.3" height="27.57"/><rect class="cls-16" x="423.89" y="285.72" width="28.3" height="27.57"/><rect class="cls-16" x="320.79" y="81.37" width="130.35" height="7.07" rx="2.29"/><rect class="cls-16" x="320.79" y="110.34" width="130.72" height="7.07" rx="2.29"/><rect class="cls-16" x="320.79" y="142.96" width="130.72" height="7.07" rx="2.29"/><rect class="cls-18" x="336.96" y="211.2" width="70.78" height="4.82" transform="translate(9.84 -16.31) rotate(2.54)"/><rect class="cls-6" x="143.99" y="134.48" width="7.81" height="7.61"/><rect class="cls-6" x="157.86" y="141.16" width="8.13" height="0.93"/><rect class="cls-6" x="143.99" y="245.7" width="7.81" height="7.61"/><rect class="cls-6" x="157.86" y="252.38" width="8.13" height="0.93"/><rect class="cls-19" x="161.93" y="212.77" width="106.89" height="0.93"/><rect class="cls-6" x="313.61" y="165.86" width="8.61" height="3.88"/><rect class="cls-6" x="327.8" y="167.8" width="9.72" height="1.32"/><rect class="cls-6" x="313.61" y="233.59" width="8.61" height="3.88"/><rect class="cls-6" x="327.8" y="235.53" width="9.72" height="1.32"/><rect class="cls-6" x="313.61" y="275.68" width="8.61" height="8.39"/><rect class="cls-6" x="327.8" y="282.13" width="9.72" height="1.32"/><ellipse class="cls-19" cx="286.04" cy="114.6" rx="2.95" ry="2.87"/><ellipse class="cls-19" cx="243.83" cy="114.93" rx="2.95" ry="2.87"/><ellipse class="cls-19" cx="243.43" cy="97.47" rx="2.95" ry="2.87"/><ellipse class="cls-19" cx="286.04" cy="82.87" rx="2.95" ry="2.87"/><ellipse class="cls-19" cx="243.83" cy="129.43" rx="2.95" ry="2.87"/><ellipse class="cls-19" cx="286.04" cy="145.64" rx="2.95" ry="2.87"/><path class="cls-6" d="M245.06,97.44A26.85,26.85,0,0,0,257.82,95c6.74-3.26,8.18-7.9,14.74-10.64A23.81,23.81,0,0,1,285,82.92"/><path class="cls-6" d="M245.14,114.92l39.46-.31"/><path class="cls-6" d="M245.06,131.31a23.8,23.8,0,0,1,10.52,1.24c7.67,2.81,9.37,8.41,16.9,11.49a25,25,0,0,0,12.2,1.56"/><path class="cls-19" d="M180.66,98.33l-6.36-6.66"/><path class="cls-19" d="M180.66,91.67l-6.36,6.66"/><rect class="cls-6" x="302.61" y="81.37" width="7.25" height="7.07"/><rect class="cls-6" x="302.61" y="109.87" width="7.25" height="7.07"/><rect class="cls-6" x="302.61" y="142.77" width="7.25" height="7.07"/><path class="cls-19" d="M367,307.73l-15.51-18.19"/><path class="cls-19" d="M367,289.54l-15.51,18.19"/><path class="cls-19" d="M406.41,289.54l-15.5,18.19"/><rect class="cls-6" x="431.9" y="292.07" width="13.55" height="13.2"/><rect class="cls-6" x="329.28" y="198.97" width="8.61" height="3.88" transform="translate(9.24 -14.6) rotate(2.54)"/><rect class="cls-6" x="343.42" y="201.57" width="9.72" height="1.32" transform="translate(9.31 -15.25) rotate(2.54)"/><path class="cls-20" d="M376.3,81.88h72.5a1.84,1.84,0,0,1,1.84,1.84v2.34a1.84,1.84,0,0,1-1.84,1.84H376.3a0,0,0,0,1,0,0v-6A0,0,0,0,1,376.3,81.88Z"/><path class="cls-20" d="M412.52,110.86h36.74a1.84,1.84,0,0,1,1.84,1.84V115a1.84,1.84,0,0,1-1.84,1.84H412.52a0,0,0,0,1,0,0v-6A0,0,0,0,1,412.52,110.86Z"/><path class="cls-21" d="M560.33,269.57c-5.16,4-2,22.27,8.61,27.43,3.8,1.86,10.52,3,15-.56a9.6,9.6,0,0,0,3.53-5.43c1.07-5.27-3.62-10-6.09-12.45C575.86,273,564.8,266.08,560.33,269.57Z"/><path class="cls-22" d="M539.5,294.28c.4-2.94,1-7.26,2-12.47,3.89-21.26,6-31.94,12.37-34.88,5.59-2.56,13.45-.11,18.59,1.5a43.42,43.42,0,0,1,7.19,3c1.75,5.58,3.43,11.78,4.85,18.57a194.3,194.3,0,0,1,3.13,20.12l-25.49-18.2a26.85,26.85,0,0,1-.3,21.14,16,16,0,0,1,11.12.43,15.23,15.23,0,0,1,4.46,3l-22.23,13.38Z"/><path class="cls-22" d="M557.2,245.31a11,11,0,0,1,6.15-4.74c2.68-.72,5.21,0,9.48,1.08A42.76,42.76,0,0,1,577.1,243c.81,2.58,1.63,5.16,2.44,7.74a67.48,67.48,0,0,0-22.34-5.44Z"/><path class="cls-22" d="M626.07,281.29c-1.34-6.85-4.44-22.37-6.29-26.75-.47-1.12-1.55-3.69-3.83-8.79-1.43-3.2-3.45-7.76-6.36-14.41-7-16-8.09-18.76-11.29-22-8.07-8-21.06-8.73-27.6-9.14-15.52-1-42.78-4.14-57.57-6.33-5.33-.79-14.71-2.29-17,1.66-1.16,2,0,4.75.66,6.32,3.1,7.15,10.4,10.59,14.48,12.29,16,6.68,25.46,4.61,44.73,9.33a138,138,0,0,1,15.63,4.83,248.11,248.11,0,0,1,16,61.69l-32.24,20,4.22,3.84c-9.51-9.34-17.8-17.65-24.68-24.62-7.13-7.23-9.62-9.86-12.49-14.38-5.67-9-4.23-11.84-10-21.45A56.42,56.42,0,0,0,497,236.16c-4.39-3.14-12.15-8.71-16.8-6-4.23,2.48-3.68,10.58-3.49,13.3.66,9.69,5.47,13.72,12.38,28,4,8.21,2.15,6.38,6.86,16.58,5.54,12,7.78,13.9,14.39,28.1,1.66,3.56,3.65,7.82,6,13.64,3.49,8.52,4.43,11,4.43,11a67.25,67.25,0,0,0,4.25,9.8c5,9,7,8.64,19.46,26.32,5.8,8.2,10.39,14.7,15.18,23.65a156.33,156.33,0,0,1,11.51,27.61,338.77,338.77,0,0,1,27.73-19.46c9.76-6.14,19.14-11.35,27.9-15.76a88.61,88.61,0,0,1-.75-9.93c-.38-20.54,6.72-28.64,16.34-62.62,0,0,3.13-11.06,3.74-35.54a14.53,14.53,0,0,0-.87-5.49,16.46,16.46,0,0,0-6.67-7.86l1,12.22a19.28,19.28,0,0,0-1.34-11.1c-4.11-9.13-14.16-11.15-15.22-11.35Z"/><path class="cls-23" d="M597.11,193.34l2.38-14.47"/><path class="cls-23" d="M615.07,204.49l18-24.17"/><path class="cls-23" d="M635.15,220.75l9.54-8.17"/><path class="cls-23" d="M653.62,205.34l20.09-16.68"/><path class="cls-23" d="M644.17,246l17.37-5.1"/></g></g></svg>