<svg xmlns="http://www.w3.org/2000/svg" viewBox="0 0 9.68 9.73"><defs><style>.cls-1{fill:#fff;fill-rule:evenodd;}</style></defs><g id="Layer_2" data-name="Layer 2"><g id="Слой_1" data-name="Слой 1"><path class="cls-1" d="M8.27,1.41A4.83,4.83,0,0,0,.68,7.23L0,9.73l2.56-.67a4.83,4.83,0,0,0,2.3.59h0A4.83,4.83,0,0,0,9.68,4.82,4.76,4.76,0,0,0,8.27,1.41M4.86,8.83h0a4,4,0,0,1-2-.56l-.15-.08-1.51.39.4-1.47L1.47,7A4,4,0,1,1,4.86,8.83m2.2-3c-.12-.06-.71-.35-.82-.39S6.05,5.38,6,5.5s-.32.39-.39.47-.14.09-.26,0a3.32,3.32,0,0,1-1-.6,3.91,3.91,0,0,1-.67-.83c-.07-.12,0-.19.06-.25l.18-.21A.82.82,0,0,0,4,3.91.22.22,0,0,0,4,3.7c0-.06-.27-.65-.37-.9s-.2-.2-.27-.2H3.16a.51.51,0,0,0-.33.15,1.39,1.39,0,0,0-.42,1A2.38,2.38,0,0,0,2.9,5,5.44,5.44,0,0,0,5,6.82c.29.12.51.19.69.25a1.7,1.7,0,0,0,.76,0,1.24,1.24,0,0,0,.81-.58A1,1,0,0,0,7.29,6s-.11-.08-.23-.14"/></g></g></svg>